<svg width="512" height="512" viewBox="0 0 512 512" fill="none" xmlns="http://www.w3.org/2000/svg">
<rect x="37" y="101" width="436" height="261" fill="url(#paint0_linear_31_8)" fill-opacity="0.25"/>
<path d="M464 127.14C464 118.226 456.774 111 447.86 111H64.1396C55.2261 111 48.0002 118.226 48 127.14V334.86C48.0002 343.774 55.2261 351 64.1396 351H447.86C456.774 351 464 343.774 464 334.86V127.14ZM496 334.86C496 361.447 474.447 383 447.86 383H64.1396C37.5529 383 16.0002 361.447 16 334.86V127.14C16.0002 100.553 37.5529 79.0002 64.1396 79H447.86C474.447 79.0002 496 100.553 496 127.14V334.86Z" fill="url(#paint1_linear_31_8)"/>
<path d="M384 400C392.837 400 400 407.163 400 416C400 424.837 392.837 432 384 432H128C119.163 432 112 424.837 112 416C112 407.163 119.163 400 128 400H384Z" fill="url(#paint2_linear_31_8)"/>
<defs>
<linearGradient id="paint0_linear_31_8" x1="37" y1="362" x2="473" y2="101" gradientUnits="userSpaceOnUse">
<stop stop-color="#FEA8E9"/>
<stop offset="1" stop-color="#9BBDFF"/>
</linearGradient>
<linearGradient id="paint1_linear_31_8" x1="16" y1="432" x2="496" y2="79" gradientUnits="userSpaceOnUse">
<stop stop-color="#FEA8E9"/>
<stop offset="1" stop-color="#9BBDFF"/>
</linearGradient>
<linearGradient id="paint2_linear_31_8" x1="16" y1="432" x2="496" y2="79" gradientUnits="userSpaceOnUse">
<stop stop-color="#FEA8E9"/>
<stop offset="1" stop-color="#9BBDFF"/>
</linearGradient>
</defs>
</svg>
